# xmcd
#
# Track frame offsets: 
#        150
#        16807
#        33362
#        51588
#        62720
#        77417
#        94676
#        111016
#        128219
#        143029
#
# Disc length: 2134 seconds
#
# Revision: 9
# Processed by: cddbd v1.5.2PL0 Copyright (c) Steve Scherf et al.
# Submitted via: ExactAudioCopyFreeDBPlugin 1.0
#
DISCID=7c08540a
DTITLE=Bruno Mars - Doo-Wops and Hooligans
DYEAR=2010
DGENRE=Pop
TTITLE0=Grenade
TTITLE1=Just The Way You Are
TTITLE2=Our First Time
TTITLE3=Runaway Baby
TTITLE4=The Lazy Song
TTITLE5=Marry You
TTITLE6=Talking To The Moon
TTITLE7=Bruno Mars (feat. Damian Marley) - Liquor Store Blues
TTITLE8=Count On Me
TTITLE9=Bruno Mars (feat. Cee-Lo Green and B.o.B.) - The Other Side
EXTD=
EXTT0=
EXTT1=
EXTT2=
EXTT3=
EXTT4=
EXTT5=
EXTT6=
EXTT7=
EXTT8=
EXTT9=
PLAYORDER=
